<svg width="100" height="100" xmlns="http://www.w3.org/2000/svg" xmlns:svg="http://www.w3.org/2000/svg">
 <!-- Cut Green Circular Outline -->
 <!-- Black Checkmark extending out of the cut -->
 <g class="layer">
  <title>Layer 1</title>
  <g id="svg_5">
   <g id="svg_1" transform="matrix(2.25989 0 0 2.25989 -3408.63 -2661.35)">
    <path d="m1542.3,1200.6c-0.3,3.15 -1.5,6.3 -4.05,8.7c-2.55,2.55 -5.85,3.9 -9.45,3.9c-3.6,0 -7.05,-1.35 -9.6,-3.9c-2.55,-2.55 -3.9,-6 -3.9,-9.6c0,-3.6 1.35,-6.9 3.9,-9.45c2.55,-2.55 6,-4.05 9.6,-4.05c3.6,0 6.9,1.5 9.45,4.05c0.45,0.45 0.9,0.9 1.35,1.35l2.55,-3.15c-0.3,-0.3 -0.6,-0.75 -1.05,-1.05c-3.3,-3.3 -7.65,-5.1 -12.3,-5.1c-4.65,0 -9.15,1.8 -12.45,5.1c-3.3,3.3 -5.1,7.65 -5.1,12.3c0,4.65 1.8,9.15 5.1,12.45c3.3,3.3 7.8,5.1 12.45,5.1c4.65,0 9,-1.8 12.3,-5.1c4.35,-4.35 5.85,-10.35 4.8,-15.9l-3.6,4.35" fill="#2ea548" fill-rule="nonzero" id="svg_2"/>
    <path d="m1530.45,1207.35l0,0c-3,0 -4.8,-1.95 -5.1,-2.4l-4.8,-4.95c-0.75,-0.75 -0.75,-1.95 0,-2.55c0.75,-0.75 1.95,-0.75 2.7,0l4.8,5.1l0,0c0,0 1.05,1.05 2.4,1.05c1.2,0 2.4,-0.75 3.6,-2.1l13.65,-16.5c0.6,-0.75 1.8,-0.9 2.55,-0.3c0.9,0.75 0.9,1.8 0.3,2.7l-13.8,16.65c-1.95,2.1 -4.05,3.3 -6.3,3.3" fill="#000000" fill-rule="nonzero" id="svg_3"/>
   </g>
  </g>
 </g>
</svg>
