<?xml version="1.0" encoding="UTF-8" standalone="no"?>
<svg
   xmlns:dc="http://purl.org/dc/elements/1.1/"
   xmlns:cc="http://creativecommons.org/ns#"
   xmlns:rdf="http://www.w3.org/1999/02/22-rdf-syntax-ns#"
   xmlns:svg="http://www.w3.org/2000/svg"
   xmlns="http://www.w3.org/2000/svg"
   viewBox="0 0 300 123.38983"
   version="1.1"
   id="svg21067"
   height="123.38983"
   width="300">
  <defs
     id="defs21069" />
  <metadata
     id="metadata21072">
    <rdf:RDF>
      <cc:Work
         rdf:about="">
        <dc:format>image/svg+xml</dc:format>
        <dc:type
           rdf:resource="http://purl.org/dc/dcmitype/StillImage" />
        <dc:title></dc:title>
      </cc:Work>
    </rdf:RDF>
  </metadata>
  <g
     transform="translate(981.42868,-290.66721)"
     id="layer1">
    <g
       transform="matrix(2.259887,0,0,2.259887,-3408.628,-2661.3538)"
       id="g21020">
      <path
         id="path13066"
         style="fill:#2ea548;fill-opacity:1;fill-rule:nonzero;stroke:none"
         d="m 1105.0857,1324.5693 c -0.3,3.15 -1.5,6.3 -4.05,8.7 -2.55,2.55 -5.85,3.9 -9.45,3.9 -3.6,0 -7.05,-1.35 -9.6,-3.9 -2.55,-2.55 -3.9,-6 -3.9,-9.6 0,-3.6 1.35,-6.9 3.9,-9.45 2.55,-2.55 6,-4.05 9.6,-4.05 3.6,0 6.9,1.5 9.45,4.05 0.45,0.45 0.9,0.9 1.35,1.35 l 2.55,-3.15 c -0.3,-0.3 -0.6,-0.75 -1.05,-1.05 -3.3,-3.3 -7.65,-5.1 -12.3,-5.1 -4.65,0 -9.15,1.8 -12.45,5.1 -3.3,3.3 -5.1,7.65 -5.1,12.3 0,4.65 1.8,9.15 5.1,12.45 3.3,3.3 7.8,5.1 12.45,5.1 4.65,0 9,-1.8 12.3,-5.1 4.35,-4.35 5.85,-10.35 4.8,-15.9 l -3.6,4.35" />
      <path
         id="path13068"
         style="fill:#000000;fill-opacity:1;fill-rule:nonzero;stroke:none"
         d="m 1093.2357,1331.3193 0,0 c -3,0 -4.8,-1.95 -5.1,-2.4 l -4.8,-4.95 c -0.75,-0.75 -0.75,-1.95 0,-2.55 0.75,-0.75 1.95,-0.75 2.7,0 l 4.8,5.1 0,0 c 0,0 1.05,1.05 2.4,1.05 1.2,0 2.4,-0.75 3.6,-2.1 l 13.65,-16.5 c 0.6,-0.75 1.8,-0.9 2.55,-0.3 0.9,0.75 0.9,1.8 0.3,2.7 l -13.8,16.65 c -1.95,2.1 -4.05,3.3 -6.3,3.3" />
    </g>
  </g>
</svg>
