<?xml version="1.0" encoding="UTF-8"?>
<svg version="1.1" xmlns="http://www.w3.org/2000/svg" width="96" height="96">
<path d="M0 0 C0.79857422 -0.01224609 1.59714844 -0.02449219 2.41992188 -0.03710938 C6.69767653 -0.04774174 10.24878913 0.00927045 14.0625 2.1875 C16.48660384 5.82365575 16.32606411 7.55843648 16.35302734 11.89038086 C16.35974457 12.56714371 16.36646179 13.24390656 16.37338257 13.94117737 C16.39238021 16.17830751 16.39628747 18.41513797 16.3984375 20.65234375 C16.40486379 22.20789209 16.41159203 23.7634392 16.41860962 25.31898499 C16.43058648 28.57979129 16.43428999 31.84049161 16.43310547 35.10131836 C16.43290216 39.27909604 16.46021447 43.45619439 16.49464989 47.633811 C16.51688956 50.84659444 16.52094394 54.05921357 16.51988602 57.27206612 C16.52224602 58.8122549 16.53109205 60.35244795 16.54655075 61.89256096 C16.5661546 64.04726606 16.56039682 66.20049561 16.54833984 68.35522461 C16.55118988 69.58083603 16.55403992 70.80644745 16.55697632 72.06919861 C15.96873394 75.7788141 15.02810201 76.95422376 12.0625 79.1875 C9.46875 79.70507812 9.46875 79.70507812 6.5625 79.71875 C5.510625 79.72390625 4.45875 79.7290625 3.375 79.734375 C2.281875 79.71890625 1.18875 79.7034375 0.0625 79.6875 C-1.5771875 79.71070312 -1.5771875 79.71070312 -3.25 79.734375 C-4.301875 79.72921875 -5.35375 79.7240625 -6.4375 79.71875 C-7.3965625 79.71423828 -8.355625 79.70972656 -9.34375 79.70507812 C-12.77337325 79.020703 -13.79367177 77.93279295 -15.9375 75.1875 C-16.43870544 72.07592773 -16.43870544 72.07592773 -16.43920898 68.37109375 C-16.44461197 67.69418488 -16.45001495 67.017276 -16.45558167 66.31985474 C-16.46806402 64.08778832 -16.45158316 61.85701314 -16.43359375 59.625 C-16.43374875 58.07088147 -16.43523793 56.51676256 -16.43800354 54.96264648 C-16.4393873 51.70767093 -16.42683393 48.45313614 -16.40405273 45.19824219 C-16.37566774 41.02839438 -16.37840551 36.85927883 -16.39114285 32.68937683 C-16.39810172 29.48085285 -16.39030844 26.27249778 -16.37788582 23.06399536 C-16.37337332 21.52662809 -16.37303277 19.98924268 -16.37695122 18.45187378 C-16.3798656 16.30217394 -16.36334748 14.15347901 -16.34155273 12.00390625 C-16.33614975 10.78131104 -16.33074677 9.55871582 -16.32518005 8.29907227 C-15.90792653 4.95013931 -15.28080863 3.56745575 -12.9375 1.1875 C-8.83741488 -0.3851425 -4.33295191 0.00348028 0 0 Z " fill="#E1E1E1" transform="translate(75.9375,8.8125)"/>
<path d="M0 0 C0.79970215 0.00386719 1.5994043 0.00773438 2.42333984 0.01171875 C7.94562744 0.0927138 12.93273916 0.67451531 18.25 2.25 C18.25 6.21 18.25 10.17 18.25 14.25 C16.909375 13.92 15.56875 13.59 14.1875 13.25 C8.42613368 11.98376564 2.48334671 10.96046778 -2.75 14.25 C-4.688548 18.4178782 -5.20523286 22.71027386 -5.75 27.25 C-4.86699219 27.1778125 -3.98398437 27.105625 -3.07421875 27.03125 C4.3952645 26.45358857 11.7590079 26.14877038 19.25 26.25 C19.25 29.88 19.25 33.51 19.25 37.25 C11 36.92 2.75 36.59 -5.75 36.25 C-5.09 50.11 -4.43 63.97 -3.75 78.25 C-9.69 78.25 -15.63 78.25 -21.75 78.25 C-21.85692533 64.20713953 -21.74069179 50.26121246 -20.75 36.25 C-22.34521484 36.49556641 -22.34521484 36.49556641 -23.97265625 36.74609375 C-27.99621348 37.28284544 -31.70249582 37.32100885 -35.75 37.25 C-35.75 33.62 -35.75 29.99 -35.75 26.25 C-25.03571429 26.10714286 -25.03571429 26.10714286 -20.75 27.25 C-21.08 26.59 -21.41 25.93 -21.75 25.25 C-22.40515347 18.5850734 -21.83711393 12.26433749 -18.75 6.25 C-13.23208192 0.58687355 -7.52207803 -0.0869784 0 0 Z " fill="#949698" transform="translate(36.75,8.75)"/>
<path d="M0 0 C2.80703896 1.34040619 3.86054551 2.54745461 6 5 C7.125 8.4375 7.125 8.4375 7 12 C5.02061533 15.74669241 3.52983947 17.64677369 0 20 C-6.94677871 20.67226891 -6.94677871 20.67226891 -10.9375 18.125 C-14.09695358 14.8698054 -14.33421243 12.57586762 -14.29296875 8.0390625 C-13.83745033 4.86865433 -12.24684343 3.1807598 -10 1 C-6.76022402 -0.61988799 -3.5016641 -0.56520367 0 0 Z " fill="#ECB81E" transform="translate(80,39)"/>
<path d="M0 0 C3.49406769 1.66762322 4.82670681 2.74006022 7 6 C7.54531842 9.06526351 7.54325893 11.93408329 7 15 C4.81840855 17.75569447 3.12822506 19.43588747 0 21 C-4.63554388 21.41204834 -7.30416098 20.87454146 -11 18 C-13.27603559 15.07366853 -13.60112624 11.71164723 -13.51171875 8.0390625 C-12.67017865 4.68575003 -10.65044253 3.07376493 -7.9375 1.06640625 C-5.06619171 -0.51397109 -3.19985895 -0.62605936 0 0 Z " fill="#1A9E1A" transform="translate(79,62)"/>
<path d="M0 0 C5.57894737 3.15789474 5.57894737 3.15789474 7 6 C7.42950108 14.87635575 7.42950108 14.87635575 5 18 C2.32378584 20.0814999 0.40875611 20.93042449 -2.9375 21.5 C-7.25011712 20.79589925 -8.88856971 19.03907145 -12 16 C-13.60847182 12.78305636 -13.61309149 9.47862778 -13 6 C-9.02999967 1.08973643 -6.29462787 -0.60525268 0 0 Z " fill="#B61818" transform="translate(79,15)"/>
<path d="M0 0 C0.66 0 1.32 0 2 0 C2 1.32 2 2.64 2 4 C3.89575251 4.02721176 5.79161979 4.04649136 7.6875 4.0625 C9.27111328 4.07990234 9.27111328 4.07990234 10.88671875 4.09765625 C13.72410262 4.00865425 16.2438919 3.64939838 19 3 C19.60247445 9.26573427 19.60247445 9.26573427 17 12.4375 C13.17675238 14.4287748 10.22817957 14.87126124 6 14 C3.1899654 12.20636089 1.49059532 10.98119065 0 8 C-0.13415472 5.3276379 -0.04318541 2.67749512 0 0 Z " fill="#F4B907" transform="translate(66,45)"/>
<path d="M0 0 C0.66 0 1.32 0 2 0 C2.3125 3.1875 2.3125 3.1875 2 7 C-0.1727422 9.63016161 -1.94673788 11.47336894 -5 13 C-9.6478538 13.41314256 -12.24440152 12.78987316 -16 10 C-17.35439668 7.29120665 -17.06501451 4.99066732 -17 2 C-16.18015625 2.08378906 -15.3603125 2.16757813 -14.515625 2.25390625 C-13.43796875 2.35574219 -12.3603125 2.45757812 -11.25 2.5625 C-10.18265625 2.66691406 -9.1153125 2.77132812 -8.015625 2.87890625 C-5.34340208 2.98621054 -3.47599264 2.96609993 -1 2 C-0.67 1.34 -0.34 0.68 0 0 Z " fill="#069304" transform="translate(84,70)"/>
<path d="M0 0 C0.33 0 0.66 0 1 0 C1.33 8.58 1.66 17.16 2 26 C-3.94 26 -9.88 26 -16 26 C-16 18.08 -16 10.16 -16 2 C-15.67 2 -15.34 2 -15 2 C-14.02700844 6.85729645 -13.87961195 11.4500625 -13.9375 16.375 C-13.94201172 17.11105469 -13.94652344 17.84710938 -13.95117188 18.60546875 C-13.96284858 20.40368158 -13.98077989 22.20185197 -14 24 C-9.71 24 -5.42 24 -1 24 C-1.01160156 22.85402344 -1.02320313 21.70804688 -1.03515625 20.52734375 C-1.04454242 18.99739748 -1.05364173 17.46744942 -1.0625 15.9375 C-1.07087891 15.18533203 -1.07925781 14.43316406 -1.08789062 13.65820312 C-1.10808341 8.99366882 -0.77595959 4.60076827 0 0 Z " fill="#A0A2A4" transform="translate(31,61)"/>
<path d="M0 0 C0.625 1.875 0.625 1.875 1 4 C0.34 4.66 -0.32 5.32 -1 6 C-1.33 7.32 -1.66 8.64 -2 10 C-5.3 10 -8.6 10 -12 10 C-12 9.34 -12 8.68 -12 8 C-13.32 7.34 -14.64 6.68 -16 6 C-15.67 4.68 -15.34 3.36 -15 2 C-14.41992188 2.02320313 -13.83984375 2.04640625 -13.2421875 2.0703125 C-8.38588834 2.18250423 -4.57067605 1.87514915 0 0 Z " fill="#AA0000" transform="translate(84,24)"/>
<path d="M0 0 C0.33 0 0.66 0 1 0 C1 23.76 1 47.52 1 72 C0.67 72 0.34 72 0 72 C-1.40651896 19.73454296 -1.40651896 19.73454296 0 0 Z " fill="#1D1E20" transform="translate(58,13)"/>
<path d="M0 0 C0.33 0 0.66 0 1 0 C1 23.76 1 47.52 1 72 C0.67 72 0.34 72 0 72 C0 48.24 0 24.48 0 0 Z " fill="#9D9D9D" transform="translate(93,13)"/>
<path d="M0 0 C0 1.32 0 2.64 0 4 C-7.75 5.125 -7.75 5.125 -10 4 C-9.67 2.35 -9.34 0.7 -9 -1 C-5.23375329 -2.25541557 -3.62811066 -1.37061958 0 0 Z " fill="#CE1919" transform="translate(81,22)"/>
<path d="M0 0 C2.875 1.5 2.875 1.5 5 3 C4.67 3.66 4.34 4.32 4 5 C3.01 4.34 2.02 3.68 1 3 C-1.32387947 2.60612212 -3.65793749 2.26513915 -6 2 C-6.4021875 2.86625 -6.4021875 2.86625 -6.8125 3.75 C-8.01956868 6.03707749 -9.45100356 7.93467141 -11 10 C-11.69580267 11.31836295 -12.37224433 12.64791086 -13 14 C-13.82719644 7.14608666 -13.82719644 7.14608666 -11.65234375 4.1328125 C-7.95332242 0.7345907 -5.16009626 -1.00958405 0 0 Z " fill="#238E21" transform="translate(79,62)"/>
<path d="M0 0 C-0.33 12.21 -0.66 24.42 -1 37 C-1.33 37 -1.66 37 -2 37 C-2 25.12 -2 13.24 -2 1 C-5.96 1 -9.92 1 -14 1 C-14 0.67 -14 0.34 -14 0 C-12.04235617 -0.19456705 -10.08384679 -0.38044247 -8.125 -0.5625 C-6.48917969 -0.71912109 -6.48917969 -0.71912109 -4.8203125 -0.87890625 C-2 -1 -2 -1 0 0 Z " fill="#A7ACAC" transform="translate(15,47)"/>
<path d="M0 0 C3.375 2 3.375 2 6 4 C5.67 4.66 5.34 5.32 5 6 C4.484375 5.505 3.96875 5.01 3.4375 4.5 C0.0761612 2.43148382 -2.11959911 2.51494989 -6 3 C-8.37719693 4.87501931 -8.37719693 4.87501931 -10 7 C-10.33 7 -10.66 7 -11 7 C-11.33 9.31 -11.66 11.62 -12 14 C-12.33 14 -12.66 14 -13 14 C-13.61364554 6.75898264 -13.61364554 6.75898264 -10.625 3.0625 C-6.82632518 0.07782692 -4.84227641 -0.4656035 0 0 Z " fill="#7E2929" transform="translate(79,15)"/>
<path d="M0 0 C3.63 0 7.26 0 11 0 C11 0.33 11 0.66 11 1 C8.03 1 5.06 1 2 1 C2 12.88 2 24.76 2 37 C1.67 37 1.34 37 1 37 C0.67 24.79 0.34 12.58 0 0 Z " fill="#A4A4A8" transform="translate(32,46)"/>
<path d="M0 0 C3.63 0 7.26 0 11 0 C11 3.63 11 7.26 11 11 C8.36 11 5.72 11 3 11 C3 10.67 3 10.34 3 10 C4.98 9.67 6.96 9.34 9 9 C9 6.69 9 4.38 9 2 C6.03 1.67 3.06 1.34 0 1 C0 0.67 0 0.34 0 0 Z " fill="#A2A4A6" transform="translate(45,35)"/>
<path d="M0 0 C2.1519437 3.22791555 2.20086443 4.28400809 2 8 C3.32 8.66 4.64 9.32 6 10 C6 10.33 6 10.66 6 11 C8.64 11.33 11.28 11.66 14 12 C12 14 12 14 9.25 14.4375 C5.80382074 13.97359125 3.7242035 13.05292816 1.125 10.7109375 C-1.02507415 7.44103307 -0.44068681 3.74583789 0 0 Z " fill="#901A1A" transform="translate(67,22)"/>
<path d="M0 0 C3.96 0 7.92 0 12 0 C10 4 10 4 8.1875 4.8125 C5.61235122 5.03322704 3.49777315 4.62444329 1 4 C0.67 2.68 0.34 1.36 0 0 Z " fill="#C70000" transform="translate(70,26)"/>
<path d="M0 0 C0 0.66 0 1.32 0 2 C-0.9075 2.53625 -1.815 3.0725 -2.75 3.625 C-6.78229894 6.12846522 -8.23786232 9.72940751 -10 14 C-10.33 14 -10.66 14 -11 14 C-10.58675744 8.7311573 -9.77055562 5.77055562 -6 2 C-3.77661117 0.62673043 -2.60417425 0 0 0 Z " fill="#9D9FA1" transform="translate(27,10)"/>
<path d="M0 0 C0.23460938 0.64453125 0.46921875 1.2890625 0.7109375 1.953125 C1.81161073 4.2077908 1.81161073 4.2077908 4.1640625 4.609375 C4.97617188 4.65578125 5.78828125 4.7021875 6.625 4.75 C7.85089844 4.83507812 7.85089844 4.83507812 9.1015625 4.921875 C9.72804688 4.94765625 10.35453125 4.9734375 11 5 C11 5.99 11 6.98 11 8 C6.42411796 8.31924758 3.55964352 8.03616654 0 5 C-0.3125 2.3125 -0.3125 2.3125 0 0 Z " fill="#169D15" transform="translate(68,75)"/>
<path d="M0 0 C1.65 0.33 3.3 0.66 5 1 C5 2.32 5 3.64 5 5 C2.69 4.67 0.38 4.34 -2 4 C-1.34 2.68 -0.68 1.36 0 0 Z " fill="#2F8C18" transform="translate(74,69)"/>
<path d="M0 0 C0.99 0 1.98 0 3 0 C3 3.96 3 7.92 3 12 C1.68 11.67 0.36 11.34 -1 11 C-0.67 7.37 -0.34 3.74 0 0 Z " fill="#A1A3A5" transform="translate(52,11)"/>
<path d="M0 0 C0.33 0 0.66 0 1 0 C1 4.29 1 8.58 1 13 C-2.96 12.67 -6.92 12.34 -11 12 C-11 11.67 -11 11.34 -11 11 C-7.37 11 -3.74 11 0 11 C0 7.37 0 3.74 0 0 Z " fill="#ADADAD" transform="translate(13,22)"/>
<path d="M0 0 C6.6 0 13.2 0 20 0 C20 0.33 20 0.66 20 1 C13.4 1 6.8 1 0 1 C0 0.67 0 0.34 0 0 Z " fill="#FFFFFF" transform="translate(66,90)"/>
<path d="M0 0 C6.6 0 13.2 0 20 0 C20 0.33 20 0.66 20 1 C13.4 1 6.8 1 0 1 C0 0.67 0 0.34 0 0 Z " fill="#FFFFFF" transform="translate(66,7)"/>
<path d="M0 0 C0.99 0.33 1.98 0.66 3 1 C3 2.32 3 3.64 3 5 C1.35 5 -0.3 5 -2 5 C-1.34 3.35 -0.68 1.7 0 0 Z " fill="#E11616" transform="translate(75,22)"/>
<path d="M0 0 C5.94 0 11.88 0 18 0 C18 0.33 18 0.66 18 1 C12.06 1 6.12 1 0 1 C0 0.67 0 0.34 0 0 Z " fill="#829494" transform="translate(38,33)"/>
<path d="M0 0 C0.33 0 0.66 0 1 0 C1.36923077 7.38461538 1.36923077 7.38461538 -0.5 10.5 C-0.995 10.995 -1.49 11.49 -2 12 C-2.33 10.68 -2.66 9.36 -3 8 C-2.01 7.67 -1.02 7.34 0 7 C0 4.69 0 2.38 0 0 Z " fill="#851616" transform="translate(85,21)"/>
<path d="M0 0 C0 0.33 0 0.66 0 1 C-4.29 1 -8.58 1 -13 1 C-13 0.67 -13 0.34 -13 0 C-8.38926889 -1.29676812 -4.66159911 -0.71109139 0 0 Z " fill="#737373" transform="translate(49,22)"/>
<path d="M0 0 C4.29 0 8.58 0 13 0 C13 0.33 13 0.66 13 1 C8.71 1 4.42 1 0 1 C0 0.67 0 0.34 0 0 Z " fill="#A9A9A9" transform="translate(43,47)"/>
<path d="M0 0 C2.97 0 5.94 0 9 0 C9 0.33 9 0.66 9 1 C6.03 1 3.06 1 0 1 C0 0.67 0 0.34 0 0 Z " fill="#929292" transform="translate(38,7)"/>
<path d="M0 0 C0.33 0 0.66 0 1 0 C1 2.31 1 4.62 1 7 C0.67 7 0.34 7 0 7 C0 4.69 0 2.38 0 0 Z " fill="#B1B1B1" transform="translate(33,25)"/>
<path d="M0 0 C2.31 0 4.62 0 7 0 C7 0.33 7 0.66 7 1 C4.69 1 2.38 1 0 1 C0 0.67 0 0.34 0 0 Z " fill="#7F7F8E" transform="translate(27,7)"/>
<path d="M0 0 C2.475 0.495 2.475 0.495 5 1 C5 1.33 5 1.66 5 2 C3.35 2 1.7 2 0 2 C0 1.34 0 0.68 0 0 Z " fill="#D1D1D1" transform="translate(32,33)"/>
<path d="M0 0 C0.33 0 0.66 0 1 0 C1 1.98 1 3.96 1 6 C0.67 6 0.34 6 0 6 C0 4.02 0 2.04 0 0 Z " fill="#C0C0C0" transform="translate(55,14)"/>
<path d="M0 0 C1 4 1 4 1 4 Z " fill="#BFBFBF" transform="translate(34,83)"/>
<path d="M0 0 C4 1 4 1 4 1 Z " fill="#879B9B" transform="translate(48,8)"/>
<path d="M0 0 C3 1 3 1 3 1 Z " fill="#595959" transform="translate(86,89)"/>
<path d="M0 0 C3 1 3 1 3 1 Z " fill="#777777" transform="translate(63,89)"/>
<path d="" fill="#AAAAAA" transform="translate(0,0)"/>
<path d="M0 0 C3 1 3 1 3 1 Z " fill="#888888" transform="translate(52,24)"/>
<path d="M0 0 C0.99 0.495 0.99 0.495 2 1 C1.01 1.495 1.01 1.495 0 2 C0 1.34 0 0.68 0 0 Z " fill="#B5B5B5" transform="translate(34,23)"/>
<path d="" fill="#DBDBDB" transform="translate(0,0)"/>
<path d="" fill="#B2B2B2" transform="translate(0,0)"/>
<path d="" fill="#8A8A8A" transform="translate(0,0)"/>
<path d="M0 0 C3 1 3 1 3 1 Z " fill="#8AA6A6" transform="translate(52,9)"/>
<path d="M0 0 C2 1 2 1 2 1 Z " fill="#9C9C9C" transform="translate(50,23)"/>
<path d="" fill="#999999" transform="translate(0,0)"/>
<path d="M0 0 C2 1 2 1 2 1 Z " fill="#818181" transform="translate(87,8)"/>
<path d="M0 0 C2 1 2 1 2 1 Z " fill="#A4A4A4" transform="translate(63,8)"/>
<path d="M0 0 C2 1 2 1 2 1 Z " fill="#BCBCBC" transform="translate(25,8)"/>
<path d="" fill="#9A9A9A" transform="translate(0,0)"/>
<path d="" fill="#939393" transform="translate(0,0)"/>
<path d="" fill="#979797" transform="translate(0,0)"/>
<path d="" fill="#A4A4A4" transform="translate(0,0)"/>
<path d="" fill="#FFFFFF" transform="translate(0,0)"/>
<path d="" fill="#92FFFF" transform="translate(0,0)"/>
<path d="" fill="#D0CBCB" transform="translate(0,0)"/>
<path d="" fill="#5F5F5F" transform="translate(0,0)"/>
<path d="" fill="#999999" transform="translate(0,0)"/>
<path d="" fill="#D2D2D2" transform="translate(0,0)"/>
<path d="" fill="#5F5F5F" transform="translate(0,0)"/>
<path d="" fill="#9B9B9B" transform="translate(0,0)"/>
<path d="" fill="#626262" transform="translate(0,0)"/>
<path d="" fill="#000000" transform="translate(0,0)"/>
<path d="" fill="#D8D8D8" transform="translate(0,0)"/>
</svg>
