<svg height="124.96648mm" viewBox="0 0 215.84055 124.96647" width="215.84055mm" xmlns="http://www.w3.org/2000/svg"><g transform="matrix(1.0197893 0 0 1.0197893 .118098 -12.439298)"><path d="m131.29845 12.19791c-8.88513 0-17.25874 5.015245-20.29282 13.022461-1.20687 3.185031-1.70806 6.36926-1.45728 9.764779h9.2165c3.81537 0 6.13244 1.97323 6.13244 3.306258-9.65643 3.77411-13.51998 8.88643-12.95469 12.907222l8.54824 60.80197 30.17593-69.493429c2.02857-4.658882 2.44789-8.572678.99167-14.263729-1.37185-5.361299-4.64374-10.613871-11.88144-14.102498-2.53222-1.150075-5.72632-1.943034-8.47855-1.943034z" fill="#6e55dc"/><path d="m80.088923 12.19791c-2.752237 0-5.946389.629396-8.478604 1.779472-7.237709 3.488631-10.673167 8.904939-12.045014 14.266244-1.456223 5.691056-.516381 10.597449 1.155163 14.427336l30.258794 69.329768 10.849358-75.554506c.54081-3.766171.10507-7.689274-1.29795-11.225944-3.15754-7.959353-10.994377-13.02237-20.441747-13.02237z" fill="#ef1541"/><path d="m27.128089 46.131779c-2.356483 1.4219-4.730438 3.682671-6.21759 6.032812-4.138542 6.540122-4.456632 14.062589-2.89428 18.891099 1.662009 5.136507 4.931798 8.728705 9.012943 11.464468l61.253314 41.050302-29.758863-67.749773c-1.530142-3.483558-4.21317-6.614039-7.318078-8.813138-6.868985-4.865064-16.703206-5.325381-24.077446-.87577z" fill="#ff7112"/><path d="m1.6965721 104.45012c-1.22003706 2.46706-1.87973808 5.69259-1.80692928 8.47278.2026144 7.73691 2.85973188 13.02467 8.11162388 17.16412 3.2128313 2.5323 8.9559913 4.64702 13.8692533 4.64736l71.388546.005-59.410666-39.786929c-2.034007-1.362161-6.416069-3.743386-12.186292-3.785727-4.852089-.0356-9.185746 1.591443-12.6352453 4.256193-4.4675973 3.451235-6.0148385 6.367203-7.3302906 9.027203z" fill="#fccc12"/><path d="m184.23304 46.131779c2.35648 1.4219 4.73044 3.682671 6.21759 6.032812 4.13854 6.540122 4.45663 14.062589 2.89428 18.891099-1.66201 5.136507-4.9318 8.728705-9.01294 11.464468l-61.25332 41.050302 29.75887-67.749773c1.53014-3.483558 4.21317-6.614039 7.31808-8.813138 6.86898-4.865064 16.7032-5.325381 24.07744-.87577z" fill="#069de0"/><path d="m209.72391 104.45012c1.22004 2.46706 1.87974 5.69259 1.80693 8.47278-.20262 7.73691-2.85973 13.02467-8.11163 17.16412-3.21283 2.5323-8.95599 4.64702-13.86925 4.64736l-71.55391.005 59.49335-39.786929c2.03489-1.360855 6.46541-3.785727 12.53355-3.785727 4.85223 0 9.10307 1.591443 12.55257 4.256193 4.4676 3.451235 5.83294 6.367203 7.14839 9.027203z" fill="#05ac3f"/></g></svg>