<?xml version="1.0" encoding="utf-8"?>
<!-- Generator: Adobe Illustrator 27.0.0, SVG Export Plug-In . SVG Version: 6.00 Build 0)  -->
<svg version="1.1" id="Layer_1" xmlns="http://www.w3.org/2000/svg" xmlns:xlink="http://www.w3.org/1999/xlink" x="0px" y="0px"
	 viewBox="0 0 512 512" style="enable-background:new 0 0 512 512;" xml:space="preserve">
<style type="text/css">
	.st0{fill:#E21B22;}
	.st1{fill:#FFFFFF;}
</style>
<g>
	<path class="st0" d="M73.14,0h365.72C479.25,0,512,32.74,512,73.14v365.72c0,40.39-32.75,73.14-73.14,73.14H73.14
		C32.75,512,0,479.25,0,438.86V73.14C0,32.74,32.75,0,73.14,0z"/>
	<path class="st1" d="M89.23,179.88h94.64c3.36,0,5.99-0.65,7.89-1.94l2.86-1.94l1.06,0.39l0.62,1.28l11.67,52.29v0.66l-0.62,1.66
		l-1.41,0.66c-1.35,0-2.85-2.25-4.53-6.76c-1.69-4.51-3.53-8.39-5.56-11.62c-5.23-8.12-11.52-14.68-18.83-19.68
		c-7.44-5.02-15.84-8.44-24.67-10.02v121.11c0,6.13,0.46,10.44,1.35,12.91c0.9,2.46,2.47,4.36,4.72,5.71
		c1.94,1.19,5.02,1.99,9.25,2.43s6.33,1.52,6.33,3.22l-0.9,1.99l-3.03,0.55h-68.16l-3.25-0.55l-0.9-1.99c0-1.7,1.95-2.75,5.84-3.17
		c3.89-0.42,6.76-1.02,8.63-1.83c2.52-1.07,4.53-3.11,5.56-5.64c1.08-2.58,1.63-7.14,1.63-13.63V184.86
		c-9.2,1.69-17.4,5.02-24.66,9.96c-7.53,5.25-13.95,11.96-18.84,19.73c-2.08,3.33-3.97,7.22-5.62,11.69
		c-1.64,4.45-3.14,6.7-4.48,6.7l-1.23-0.65l-0.56-1.67v-0.66l13.1-52.4l0.68-1.06l1.12-0.49l2.74,1.94
		C83.36,179.24,85.87,179.89,89.23,179.88L89.23,179.88L89.23,179.88z M289.13,181.65c-14.5,0-25.6,6.38-33.31,19.16
		c-7.7,12.78-11.55,31.28-11.55,55.52c0,24.22,3.85,42.73,11.55,55.51c7.71,12.78,18.8,19.17,33.31,19.17s25.45-6.38,33.08-19.17
		c7.62-12.78,11.43-31.28,11.43-55.51s-3.84-42.74-11.51-55.52c-7.66-12.78-18.67-19.16-33.02-19.16L289.13,181.65L289.13,181.65z
		 M289.13,176.88c23.31,0,42.59,7.48,57.8,22.44c15.22,14.96,22.81,33.95,22.81,57.02c0,23.05-7.6,42-22.81,57.07
		c-15.22,15.07-34.49,22.6-57.8,22.6c-9.64,0-18.65-1.36-27.03-4.04c-8.34-2.68-16.15-6.8-23.1-12.15
		c-9.87-7.46-17.47-16.68-22.76-27.64c-5.36-11.19-8.08-23.45-7.96-35.84c0-23.05,7.61-42.06,22.82-57.02
		C246.32,184.36,265.67,176.88,289.13,176.88z M383.74,179.88h59.65c1.72,0,2.9,0.21,3.58,0.66l1.01,2.2c0,1.41-1.44,2.36-4.31,2.9
		c-2.23,0.32-4.41,0.96-6.45,1.88c-2.61,1.41-4.45,3.33-5.49,5.76c-1.04,2.43-1.57,7.02-1.57,13.73v98.73
		c0,6.73,0.52,11.33,1.57,13.79c1.04,2.47,2.91,4.41,5.62,5.82c1.19,0.58,3.27,1.17,6.22,1.72s4.43,1.54,4.43,2.95l-0.84,2.21
		c-0.57,0.36-1.81,0.55-3.75,0.55h-59.65c-2.01,0-3.33-0.2-3.93-0.6l-0.89-2.16c0-1.41,1.44-2.37,4.31-2.95
		c2.87-0.56,4.99-1.17,6.32-1.83c2.51-1.21,4.5-3.27,5.62-5.81s1.69-7.11,1.69-13.68V201.36c0-3.62-0.75-6.65-2.25-9.09
		c-1.5-2.43-3.66-4.24-6.51-5.43c-1.04-0.36-2.51-0.7-4.38-1c-3.22-0.59-4.83-1.63-4.83-3.12l1.06-2.2
		c0.71-0.45,1.95-0.66,3.75-0.66L383.74,179.88z"/>
</g>
</svg>
